<svg xmlns="http://www.w3.org/2000/svg" viewBox="0 0 24 24" fill="none">
  <path
    d="M9 5V4.5C9 3.12 10.12 2 11.5 2h1C13.88 2 15 3.12 15 4.5V5"
    stroke="#111111"
    stroke-width="1.8"
    stroke-linecap="round"
    stroke-linejoin="round"
  />
  <path
    d="M3.2 6.8A7.4 7.4 0 0 0 1.6 9.4"
    stroke="#111111"
    stroke-width="1.8"
    stroke-linecap="round"
  />
  <path
    d="M20.8 6.8A7.4 7.4 0 0 1 22.4 9.4"
    stroke="#111111"
    stroke-width="1.8"
    stroke-linecap="round"
  />
  <path
    d="M6 17.5v-5c0-3.31 2.69-6 6-6s6 2.69 6 6v5l1.5 1.5V20H4.5v-1l1.5-1.5Z"
    stroke="#111111"
    stroke-width="1.8"
    stroke-linecap="round"
    stroke-linejoin="round"
  />
  <path
    d="M10.3 21h3.4L12 23.2 10.3 21Z"
    stroke="#111111"
    stroke-width="1.8"
    stroke-linejoin="round"
  />
</svg>
